<svg width="65" height="65" viewBox="0 0 65 65" fill="none" xmlns="http://www.w3.org/2000/svg">
<g clip-path="url(#clip0_1_44)">
<path d="M64.1217 0.456543H0.121704V64.4565H64.1217V0.456543Z" fill="#F5F5F5"/>
<path d="M22.1217 49.1245H42.1217L40.455 44.1245H23.7884L22.1217 49.1245Z" stroke="#A8856B" stroke-width="1.5"/>
<path d="M30.4544 37.4565L28.7877 44.1232" stroke="#A8856B" stroke-width="1.5"/>
<path d="M33.7877 37.4565L35.4544 44.1232" stroke="#A8856B" stroke-width="1.5"/>
<path d="M22.1217 15.7886V27.4553C22.1217 30.1075 23.1753 32.651 25.0506 34.5264C26.926 36.4017 29.4695 37.4553 32.1217 37.4553C34.7739 37.4553 37.3174 36.4017 39.1928 34.5264C41.0681 32.651 42.1217 30.1075 42.1217 27.4553V15.7886H22.1217Z" stroke="#A8856B" stroke-width="1.5"/>
<path d="M42.0045 29.0049C42.3144 29.0867 42.634 29.1259 42.9545 29.1216C44.0596 29.1216 45.1194 28.6826 45.9008 27.9012C46.6822 27.1198 47.1212 26.06 47.1212 24.9549C47.1212 23.8498 46.6822 22.79 45.9008 22.0086C45.1194 21.2272 44.0596 20.7882 42.9545 20.7882C42.6773 20.7627 42.3984 20.7627 42.1212 20.7882" stroke="#A8856B" stroke-width="1.5"/>
<path d="M22.1217 20.8741C21.8445 20.8486 21.5656 20.8486 21.2884 20.8741C20.1833 20.8741 19.1235 21.313 18.3421 22.0944C17.5607 22.8758 17.1217 23.9357 17.1217 25.0407C17.1217 26.1458 17.5607 27.2056 18.3421 27.987C19.1235 28.7684 20.1833 29.2074 21.2884 29.2074C21.6089 29.2118 21.9285 29.1725 22.2384 29.0907" stroke="#A8856B" stroke-width="1.5"/>
</g>
<defs>
<clipPath id="clip0_1_44">
<rect width="64" height="64" fill="white" transform="translate(0.121704 0.456543)"/>
</clipPath>
</defs>
</svg>
